<svg xmlns="http://www.w3.org/2000/svg" viewBox="0 0 128 128" fill="none">
  <defs>
    <radialGradient id="bg" cx="50%" cy="48%" r="58%">
      <stop offset="0%" stop-color="#17130a"/>
      <stop offset="62%" stop-color="#080704"/>
      <stop offset="100%" stop-color="#020202"/>
    </radialGradient>
    <linearGradient id="gold" x1="21" y1="16" x2="105" y2="112" gradientUnits="userSpaceOnUse">
      <stop offset="0%" stop-color="#fff2bd"/>
      <stop offset="42%" stop-color="#d9a441"/>
      <stop offset="100%" stop-color="#8c6518"/>
    </linearGradient>
    <filter id="glow" x="-24" y="-24" width="176" height="176" color-interpolation-filters="sRGB">
      <feGaussianBlur stdDeviation="3.5" result="blur"/>
      <feColorMatrix in="blur" type="matrix" values="1 0 0 0 0.96 0 1 0 0 0.72 0 0 1 0 0.28 0 0 0 0.8 0"/>
      <feMerge>
        <feMergeNode/>
        <feMergeNode in="SourceGraphic"/>
      </feMerge>
    </filter>
  </defs>
  <circle cx="64" cy="64" r="61" fill="url(#bg)"/>
  <g filter="url(#glow)" stroke="url(#gold)" stroke-linecap="round" stroke-linejoin="round">
    <path d="M64 13c11.5 9.4 22.9 9.4 34.1 3.7-5.8 12.5-2.7 22.6 10.8 32.2-12.2 5.8-15.8 15.7-11.6 30.2-13.2-4.7-22.9-.4-33.3 14.4-10.4-14.8-20.1-19.1-33.3-14.4 4.2-14.5.6-24.4-11.6-30.2 13.5-9.6 16.6-19.7 10.8-32.2C41.1 22.4 52.5 22.4 64 13Z" stroke-width="6"/>
    <path d="M64 28c-17.8 0-31.4 13.6-31.4 31.4 0 18.1 13.8 33 31.4 33 17.6 0 31.4-14.9 31.4-33C95.4 41.6 81.8 28 64 28Z" stroke-width="4.5" opacity=".92"/>
    <path d="M64 40c-11.2 0-20 8.2-20 19 0 11.7 8.9 21.4 20 21.4 11.1 0 20-9.7 20-21.4 0-10.8-8.8-19-20-19Z" stroke-width="4.5" opacity=".92"/>
    <path d="M64 51.5c-5.7 0-10.2 4.1-10.2 9.5 0 6 4.6 10.9 10.2 10.9S74.2 67 74.2 61c0-5.4-4.5-9.5-10.2-9.5Z" stroke-width="4"/>
    <circle cx="64" cy="61.5" r="4.8" stroke-width="4"/>
    <path d="M38.5 60.8c9.5 1 18.5-3 25.5-12.1 7 9.1 16 13.1 25.5 12.1" stroke-width="4" opacity=".86"/>
    <path d="M43.7 76.8c10.5-2.3 17.2-7.7 20.3-16.1 3.1 8.4 9.8 13.8 20.3 16.1" stroke-width="4" opacity=".86"/>
  </g>
</svg>
